<svg xmlns="http://www.w3.org/2000/svg" viewBox="0 0 64 64">
  <path fill="#000000" d="M14.1 26.3C8.8 33.5 7.9 43.1 12 51.1C17.7 62.3 31.5 66.8 42.9 61.1C54.8 55 59.6 40.4 53.5 28.5C52.5 26.5 49.4 28.1 50.4 30.1C55.5 40.2 51.5 52.6 41.3 57.8C31.3 62.8 19.2 58.9 14.2 49C10.8 42.2 11.6 34.2 16 28.3C17.4 26.5 15.4 24.5 14.1 26.3ZM19.2 22.1L32.9 8.2L47.4 22.1L40.5 29L36 24.5V37.6L29.2 40V24.4L24.9 28.8L19.2 22.1ZM16.6 56.4C17.2 41.4 27.3 34.5 40.6 30.4C48.3 28.1 53.2 24.7 56.5 21.1C57 32.9 51.3 41.1 41.4 46.2C33.2 50.5 24.7 52.2 16.6 56.4Z"/>
</svg>
