<svg xmlns="http://www.w3.org/2000/svg" viewBox="0 0 96 96" role="img" aria-labelledby="galturan-mark-title galturan-mark-desc">
  <title id="galturan-mark-title">Galturan LLC mark</title>
  <desc id="galturan-mark-desc">A green upward market-entry arrow, circular route, and gold growth leaf.</desc>
  <defs>
    <linearGradient id="mark-green" x1="23" y1="17" x2="72" y2="77" gradientUnits="userSpaceOnUse">
      <stop offset="0" stop-color="#1f9b5c"/>
      <stop offset="0.5" stop-color="#0f6f64"/>
      <stop offset="1" stop-color="#0d4844"/>
    </linearGradient>
    <linearGradient id="mark-gold" x1="31" y1="75" x2="75" y2="42" gradientUnits="userSpaceOnUse">
      <stop offset="0" stop-color="#c58b25"/>
      <stop offset="0.45" stop-color="#f1cf63"/>
      <stop offset="0.78" stop-color="#fff2a3"/>
      <stop offset="1" stop-color="#d7a33b"/>
    </linearGradient>
    <linearGradient id="mark-leaf-shadow" x1="33" y1="72" x2="72" y2="41" gradientUnits="userSpaceOnUse">
      <stop offset="0" stop-color="#0d4844"/>
      <stop offset="1" stop-color="#128654"/>
    </linearGradient>
  </defs>
  <path d="M20.4 38.8C12.9 49.1 11.5 62.8 17.4 74.4C25.5 90.5 45.2 97 61.4 88.8C78.5 80.1 85.4 59.2 76.7 42.2" fill="none" stroke="#0d4844" stroke-width="8.2" stroke-linecap="round"/>
  <path d="M24.2 43.1C18.9 51.1 18.2 61.4 22.8 70.1" fill="none" stroke="#37a66b" stroke-width="4.2" stroke-linecap="round"/>
  <path d="M28.2 31.6L47.9 11.7L68.5 31.5L58.6 41.3L52.2 34.9V53.6L42.5 57V34.7L36.4 41.1L28.2 31.6Z" fill="url(#mark-green)" stroke="#083b36" stroke-width="1.4" stroke-linejoin="round"/>
  <path d="M24.5 80.7C25.4 59.2 39.8 49.3 58.8 43.5C69.7 40.1 76.7 35.3 81.5 30.1C82.1 47 73.8 58.8 59.8 66C48 72.1 35.9 74.6 24.5 80.7Z" fill="url(#mark-leaf-shadow)" stroke="#073f38" stroke-width="1.4" stroke-linejoin="round"/>
  <path d="M27.6 80.3C32.8 63.7 43.2 57.7 56.2 52C66.9 47.3 75.2 41.4 81.3 31.5C82.1 46.5 76.8 61.5 62.9 70.8C52.3 77.9 39.1 80.7 27.6 80.3Z" fill="url(#mark-gold)" stroke="#996d1f" stroke-width="1.2" stroke-linejoin="round"/>
  <path d="M31.1 77.6C43.8 69.4 55.8 65 66.5 55.2" fill="none" stroke="#b97e21" stroke-width="1.1" stroke-linecap="round"/>
</svg>
