<svg xmlns="http://www.w3.org/2000/svg" width="620" height="180" viewBox="0 0 620 180" role="img" aria-labelledby="galturan-logo-title galturan-logo-desc">
  <title id="galturan-logo-title">Galturan LLC logo</title>
  <desc id="galturan-logo-desc">Galturan LLC logo based on the original source mark with a green upward arrow, circular route, gold leaf, and the line Market Entry, Import &amp; Distribution.</desc>
  <defs>
    <linearGradient id="logo-green" x1="37" y1="24" x2="121" y2="132" gradientUnits="userSpaceOnUse">
      <stop offset="0" stop-color="#1f9b5c"/>
      <stop offset="0.5" stop-color="#0f6f64"/>
      <stop offset="1" stop-color="#0d4844"/>
    </linearGradient>
    <linearGradient id="logo-gold" x1="51" y1="130" x2="127" y2="73" gradientUnits="userSpaceOnUse">
      <stop offset="0" stop-color="#c58b25"/>
      <stop offset="0.45" stop-color="#f1cf63"/>
      <stop offset="0.78" stop-color="#fff2a3"/>
      <stop offset="1" stop-color="#d7a33b"/>
    </linearGradient>
    <linearGradient id="logo-leaf-shadow" x1="54" y1="125" x2="126" y2="70" gradientUnits="userSpaceOnUse">
      <stop offset="0" stop-color="#0d4844"/>
      <stop offset="1" stop-color="#128654"/>
    </linearGradient>
  </defs>
  <rect width="620" height="180" fill="none"/>
  <g transform="translate(18 14)">
    <path d="M28.7 61.8C16.7 78.2 14.5 100 23.9 118.5C36.8 144.1 68.2 154.4 94 141.3C121.2 127.5 132.2 94.2 118.3 67.2" fill="none" stroke="#0d4844" stroke-width="13" stroke-linecap="round"/>
    <path d="M34.8 68.6C26.4 81.3 25.2 97.6 32.6 111.5" fill="none" stroke="#37a66b" stroke-width="6.7" stroke-linecap="round"/>
    <path d="M41.1 50.3L72.5 18.7L105.3 50.2L89.6 65.8L79.4 55.6V85.4L63.9 90.8V55.3L54.2 65.4L41.1 50.3Z" fill="url(#logo-green)" stroke="#083b36" stroke-width="2.2" stroke-linejoin="round"/>
    <path d="M35.2 128.4C36.6 94.2 59.5 78.5 89.8 69.2C107.1 63.8 118.3 56.2 125.9 47.9C126.9 74.8 113.7 93.6 91.4 105.1C72.6 114.8 53.3 118.8 35.2 128.4Z" fill="url(#logo-leaf-shadow)" stroke="#073f38" stroke-width="2.2" stroke-linejoin="round"/>
    <path d="M40.1 127.8C48.4 101.4 65 91.8 85.6 82.8C102.7 75.3 115.9 65.9 125.6 50.2C126.8 74.1 118.4 98 96.2 112.8C79.3 124.1 58.3 128.6 40.1 127.8Z" fill="url(#logo-gold)" stroke="#996d1f" stroke-width="1.9" stroke-linejoin="round"/>
    <path d="M45.6 123.5C65.8 110.5 84.9 103.5 101.9 87.9" fill="none" stroke="#b97e21" stroke-width="1.8" stroke-linecap="round"/>
  </g>
  <g transform="translate(176 55)">
    <text x="0" y="34" fill="#073f38" stroke="#082c29" stroke-width="0.7" paint-order="stroke" font-family="Georgia, Times New Roman, serif" font-size="48" font-weight="700" letter-spacing="0">GALTURAN</text>
    <g transform="translate(6 62)">
      <path d="M0 0H136" stroke="#c89b3c" stroke-width="2"/>
      <text x="166" y="10" fill="#c89b3c" font-family="Georgia, Times New Roman, serif" font-size="28" font-weight="700" letter-spacing="9">LLC</text>
      <path d="M276 0H410" stroke="#c89b3c" stroke-width="2"/>
    </g>
    <text x="0" y="112" fill="#102526" font-family="Inter, Avenir Next, Segoe UI, Arial, sans-serif" font-size="25" font-weight="650" letter-spacing="0">Market Entry, Import &amp; Distribution</text>
  </g>
</svg>
